<svg xmlns="http://www.w3.org/2000/svg" xmlns:xlink="http://www.w3.org/1999/xlink" width="172.995" height="54.3" viewBox="0 0 172.995 54.3">
  <defs>
    <clipPath id="clip-path">
      <rect id="Rectangle_7" data-name="Rectangle 7" width="172.995" height="54.3" fill="none"/>
    </clipPath>
  </defs>
  <g id="Group_2" data-name="Group 2" transform="translate(0 0)">
    <g id="Group_1" data-name="Group 1" transform="translate(0 0)" clip-path="url(#clip-path)">
      <path id="Path_1" data-name="Path 1" d="M2.218,43.334a10.916,10.916,0,0,1,9.548-5.354,11.744,11.744,0,0,1,0,23.487A10.835,10.835,0,0,1,2.218,56.21V71.883H0v-34H2.218ZM11.767,40.2a9.342,9.342,0,0,0-9.548,9.356,9.452,9.452,0,0,0,9.548,9.693,9.275,9.275,0,0,0,9.4-9.451,9.428,9.428,0,0,0-9.4-9.6" transform="translate(0 -17.583)" fill="#005fab"/>
      <path id="Path_2" data-name="Path 2" d="M70.422,18.232a2.771,2.771,0,1,1,0,5.534,2.776,2.776,0,1,1,0-5.534m1.1,33.632h-2.17V28.875h2.17Z" transform="translate(-31.297 -8.462)" fill="#005fab"/>
      <path id="Path_3" data-name="Path 3" d="M81.178,38.065H83.4v3.924c1.371-2.741,4.87-3.924,7.957-3.924,5.4,0,8.97,3.762,8.97,9.79V61.069h-2.17V47.855c0-4.775-2.749-7.62-6.8-7.62-3.954,0-7.812,2.43-7.957,8.41V61.069H81.178Z" transform="translate(-37.678 -17.668)" fill="#005fab"/>
      <path id="Path_4" data-name="Path 4" d="M128.434,32.509h-5.257V53.634h-2.17V32.509h-4.1V30.532h4.1V22.046h2.17v8.486h5.257Z" transform="translate(-54.262 -10.233)" fill="#005fab"/>
      <path id="Path_5" data-name="Path 5" d="M161.044,16.106H154.4c-6.366,0-9.6,3.858-9.6,10.465V27.78h-4.292v4.726H144.8V50.877h5.932V32.505h4.774V27.78h-4.774V26.571c0-2.749.916-4.822,3.665-4.822h6.644V50.877h5.883V16.106Z" transform="translate(-65.217 -7.475)" fill="#161615"/>
      <path id="Path_6" data-name="Path 6" d="M190.616,49.736a11.719,11.719,0,0,1,23.438,0,11.719,11.719,0,1,1-23.438,0m17.6,0a5.883,5.883,0,1,0-11.767,0,5.885,5.885,0,1,0,11.767,0" transform="translate(-88.473 -17.668)" fill="#161615"/>
      <path id="Path_7" data-name="Path 7" d="M258.008,61.487h-4.919l-5.015-15.095L243.2,61.487h-4.871l-8.295-22.522h6.269l4.582,14.227,4.533-14.227h5.208l4.582,14.227,4.582-14.227h6.269Z" transform="translate(-106.769 -18.085)" fill="#161615"/>
      <path id="Path_8" data-name="Path 8" d="M58.626,38.094c-2.927.145-6.072,1.344-7.354,3.909V38.094H49.053V61.082h2.218V48.658c.137-5.675,3.62-8.149,7.354-8.386Z" transform="translate(-22.767 -17.681)" fill="#005fab"/>
      <rect id="Rectangle_1" data-name="Rectangle 1" width="4.302" height="4.302" transform="translate(154.745 1.041)" fill="#005fab"/>
      <rect id="Rectangle_2" data-name="Rectangle 2" width="6.407" height="6.407" transform="translate(156.896 7.518)" fill="#005fab"/>
      <rect id="Rectangle_3" data-name="Rectangle 3" width="3.099" height="3.099" transform="translate(164.992 2.73)" fill="#005fab"/>
      <rect id="Rectangle_4" data-name="Rectangle 4" width="2.105" height="2.105" transform="translate(168.785)" fill="#005fab"/>
      <rect id="Rectangle_5" data-name="Rectangle 5" width="4.835" height="4.835" transform="translate(167.629 8.535)" fill="#005fab"/>
      <rect id="Rectangle_6" data-name="Rectangle 6" width="4.765" height="4.765" transform="translate(168.23 20.309)" fill="#005fab"/>
      <text id="Matbaa_Yönetim_Sistemi" data-name="Matbaa Yönetim Sistemi" transform="translate(79.033 51.55)" fill="#161615" font-size="7" font-family="SegoeUI, Segoe UI"><tspan x="0" y="0" letter-spacing="-0.039em">M</tspan><tspan y="0" letter-spacing="-0.032em">a</tspan><tspan y="0" letter-spacing="-0.033em">t</tspan><tspan y="0" letter-spacing="-0.032em">b</tspan><tspan y="0" letter-spacing="-0.033em">aa</tspan><tspan y="0" letter-spacing="-0.032em"> </tspan><tspan y="0" letter-spacing="-0.143em">Y</tspan><tspan y="0" letter-spacing="-0.033em">ö</tspan><tspan y="0" letter-spacing="-0.032em">ne</tspan><tspan y="0" letter-spacing="-0.033em">ti</tspan><tspan y="0" letter-spacing="-0.032em">m </tspan><tspan y="0" letter-spacing="-0.038em">S</tspan><tspan y="0" letter-spacing="-0.032em">i</tspan><tspan y="0" letter-spacing="-0.033em">s</tspan><tspan y="0" letter-spacing="-0.041em">t</tspan><tspan y="0" letter-spacing="-0.032em">em</tspan><tspan y="0">i</tspan></text>
    </g>
  </g>
</svg>
